<svg width="146" height="146" viewBox="0 0 146 146" fill="none" xmlns="http://www.w3.org/2000/svg">
<path fill-rule="evenodd" clip-rule="evenodd" d="M59.757 132.196C47.9327 129.658 37.1297 123.663 28.7203 114.971C20.311 106.28 14.6748 95.2855 12.5278 83.384C10.3808 71.4825 11.8199 59.2114 16.6624 48.1296C21.5048 37.0478 29.5319 27.6554 39.724 21.1457C49.9162 14.636 61.8132 11.3028 73.9039 11.5695C85.9946 11.8361 97.7332 15.6907 107.628 22.6434C117.524 29.5962 125.129 39.3333 129.478 50.6179C133.827 61.9024 134.724 74.225 132.054 86.0203C128.544 101.704 118.971 115.363 105.426 124.014C91.8809 132.666 75.4632 135.607 59.757 132.196Z" fill="#0090FF"/>
<mask id="mask0_53_409" style="mask-type:alpha" maskUnits="userSpaceOnUse" x="11" y="11" width="123" height="123">
<path fill-rule="evenodd" clip-rule="evenodd" d="M59.757 132.196C47.9327 129.658 37.1297 123.663 28.7203 114.971C20.311 106.28 14.6748 95.2855 12.5278 83.384C10.3808 71.4825 11.8199 59.2114 16.6624 48.1296C21.5048 37.0478 29.5319 27.6554 39.724 21.1457C49.9162 14.636 61.8132 11.3028 73.9039 11.5695C85.9946 11.8361 97.7332 15.6907 107.628 22.6434C117.524 29.5962 125.129 39.3333 129.478 50.6179C133.827 61.9024 134.724 74.225 132.054 86.0203C128.544 101.704 118.971 115.363 105.426 124.014C91.8809 132.666 75.4632 135.607 59.757 132.196Z" fill="#FECB3C"/>
</mask>
<g mask="url(#mask0_53_409)">
<path d="M129.777 52.3691C127.853 50.6271 125.887 48.8006 123.834 47.166C121.723 45.454 119.241 44.2604 116.585 43.6809C109.601 42.1643 102.356 45.1057 95.3569 47.8147C90.6333 49.6783 85.7935 51.592 81.4231 51.9673C75.9444 52.3879 70.7585 46.7472 66.3844 41.7343C64.9794 40.1652 63.5551 38.5467 62.1559 37.1594C55.5353 30.7106 49.0785 27.4577 41.8982 26.9821C35.5765 26.5725 29.5859 29.0038 23.7178 31.3563C22.0685 32.0215 20.3411 32.6998 18.6675 33.2694L16.9325 41.2597C20.9149 40.592 24.802 39.4452 28.5091 37.8442C32.1908 36.1777 36.0946 35.0536 40.0988 34.5069C41.5334 34.4115 42.9744 34.5167 44.38 34.8195C50.502 36.1488 55.3766 41.4209 60.1532 46.5212C65.2203 52.0156 70.475 57.6862 77.5887 59.2308C79.3403 59.6061 81.1389 59.7125 82.9226 59.5463C88.2501 59.1982 93.4254 57.0564 98.4226 55.0415C102.144 53.3979 106.012 52.1066 109.975 51.1844C115.799 50.0714 120.559 54.0695 125.52 58.6681C126.267 59.387 127.02 60.0772 127.819 60.7624C130.375 63.0965 133.2 65.1191 136.232 66.7878L137.886 59.1712C135.017 57.1099 132.306 54.8362 129.777 52.3691Z" fill="white"/>
<path d="M123.602 83.9992L121.069 80.003C117.146 73.6735 113.096 67.166 105.379 65.4903C104.183 65.2238 102.962 65.0849 101.737 65.0757C95.4566 64.9611 89.8161 68.2057 84.3393 71.3204C80.2244 73.7075 75.982 76.1271 71.7473 76.8479C70.3552 77.0937 68.9296 77.0801 67.5424 76.8077C62.3832 75.6875 59.0112 70.0795 55.7403 64.629C54.1339 61.8083 52.3203 59.1108 50.3145 56.5586C48.0186 53.7161 44.8212 51.7423 41.2511 50.9639C34.3099 49.4567 26.8744 52.5825 21.848 55.494L20.2669 56.3997C17.9112 57.8888 15.42 59.1517 12.8265 60.1715L11.0073 68.5498C14.4452 68.0656 17.7581 66.9254 20.7657 65.1911C21.7234 64.6616 22.673 64.1003 23.6369 63.5422C27.0307 61.2845 30.7814 59.616 34.7307 58.6073C39.8988 57.6076 44.1236 60.1202 48.0564 66.5421L49.1596 68.3918C53.408 75.4391 57.814 82.7312 65.833 84.4725C67.1455 84.7525 68.4856 84.8819 69.8274 84.8582C76.2184 84.7411 81.8483 81.6145 87.2776 78.5798C91.5919 76.1758 96.0285 73.693 100.528 72.9997C101.692 72.8116 102.879 72.835 104.034 73.0688C108.949 74.136 112.273 79.6884 115.531 85.0608C117.303 88.3319 119.441 91.391 121.903 94.1794C123.901 96.3673 126.425 98.0083 129.235 98.9466L131.064 90.5252C127.944 89.2016 125.329 86.9149 123.602 83.9992Z" fill="white"/>
<path d="M118.708 103.207C116.822 101.428 114.853 99.6161 112.8 97.9816C110.693 96.2634 108.209 95.069 105.551 94.4963C98.5668 92.9798 91.3218 95.9212 84.3229 98.6301C79.5993 100.494 74.7532 102.436 70.3922 102.768C64.9073 103.218 59.7307 97.534 55.3504 92.5498C53.8861 90.9076 52.5243 89.3479 51.1219 87.9749C44.5044 81.5118 38.0445 78.2732 30.858 77.8263C24.5425 77.388 18.5519 79.8193 12.7219 82.1349C11.0695 82.8145 9.41086 83.5228 7.64283 84.0418L5.90473 92.0464C9.89016 91.3801 13.779 90.2283 17.4844 88.6166C21.1584 86.9408 25.063 85.8255 29.0679 85.308C30.5034 85.1764 31.9507 85.2673 33.3584 85.5775C39.4374 86.8975 44.3552 92.1789 49.0998 97.2873C54.167 102.782 59.4535 108.444 66.5671 109.989C68.3155 110.364 70.1088 110.485 71.8917 110.347C77.238 109.913 82.4007 107.829 87.398 105.814C91.1138 104.168 94.9805 102.886 98.9438 101.985C104.775 100.844 109.529 104.871 114.496 109.44C115.242 110.159 115.998 110.835 116.795 111.535C119.352 113.865 122.177 115.882 125.211 117.546L126.865 109.929C123.984 107.893 121.258 105.646 118.708 103.207Z" fill="white"/>
</g>
</svg>
